<?xml version="1.0" encoding="utf-8"?>
<!-- Generator: Adobe Illustrator 24.2.1, SVG Export Plug-In . SVG Version: 6.00 Build 0)  -->
<svg version="1.1" id="Layer_1" xmlns="http://www.w3.org/2000/svg" xmlns:xlink="http://www.w3.org/1999/xlink" x="0px" y="0px"
	 viewBox="0 0 1920 1080" style="enable-background:new 0 0 1920 1080;" xml:space="preserve">
<style type="text/css">
	.st0{fill:#FFFFFF;}
	.st1{fill:#FFFFFF;stroke:#FFFFFF;stroke-width:60;stroke-miterlimit:10;}
	.st2{stroke:#FFFFFF;stroke-width:60;stroke-miterlimit:10;}
</style>
<g>
	<path class="st0" d="M650,345c50.75,0,98.46,19.76,134.35,55.65C820.24,436.54,840,484.25,840,535s-19.76,98.46-55.65,134.35
		C748.46,705.24,700.75,725,650,725s-98.46-19.76-134.35-55.65C479.76,633.46,460,585.75,460,535s19.76-98.46,55.65-134.35
		C551.54,364.76,599.25,345,650,345 M650,285c-138.07,0-250,111.93-250,250s111.93,250,250,250s250-111.93,250-250
		S788.07,285,650,285L650,285z"/>
</g>
<path class="st1" d="M1152.94,285"/>
<path class="st2" d="M870.01,95.22v435.76V95.22z"/>
<g>
	<path class="st0" d="M1270,345c50.75,0,98.46,19.76,134.35,55.65c35.89,35.89,55.65,83.6,55.65,134.35s-19.76,98.46-55.65,134.35
		C1368.46,705.24,1320.75,725,1270,725s-98.46-19.76-134.35-55.65C1099.76,633.46,1080,585.75,1080,535s19.76-98.46,55.65-134.35
		C1171.54,364.76,1219.25,345,1270,345 M1270,285c-138.07,0-250,111.93-250,250s111.93,250,250,250s250-111.93,250-250
		S1408.07,285,1270,285L1270,285z"/>
</g>
<path class="st1" d="M1092.72,358.72"/>
<path class="st1" d="M1049.99,974.78V539.02V974.78z"/>
<g>
	<path class="st0" d="M870.01,95.22C869.98,95.22,870.01,95.22,870.01,95.22z"/>
	<path class="st0" d="M870.01,65.22c-16.57,0-30,13.43-30,30s13.43,30,30,30s30-13.43,30-30S886.58,65.22,870.01,65.22L870.01,65.22
		z"/>
</g>
<g>
	<path class="st0" d="M1049.99,974.78C1049.96,974.78,1049.99,974.78,1049.99,974.78z"/>
	<path class="st0" d="M1049.99,944.78c-16.57,0-30,13.43-30,30s13.43,30,30,30c16.57,0,30-13.43,30-30
		S1066.56,944.78,1049.99,944.78L1049.99,944.78z"/>
</g>
<g>
</g>
<g>
</g>
<g>
</g>
<g>
</g>
<g>
</g>
<g>
</g>
<g>
</g>
<g>
</g>
<g>
</g>
<g>
</g>
<g>
</g>
<g>
</g>
<g>
</g>
<g>
</g>
<g>
</g>
</svg>
